# xmcd CD database file
#
# Track frame offsets:
#	151
#	23647
#	38422
#	59994
#	79756
#	106226
#	123618
#	148556
#	169322
#
# Disc length: 2639 seconds
#
# Revision: 0
# Processed by: cddbd v1.5.1PL0 Copyright (c) Steve Scherf et al.
# Submitted via: CDex 1.51
#
DISCID=770a4d09
DTITLE=Caribbean Music - Salsa Zouc Soca
DYEAR=1900
DGENRE=Salsa
TTITLE0=Douvan
TTITLE1=Ti Calypso
TTITLE2=Nouvel Horizon
TTITLE3=Nadia
TTITLE4=Lé Salsa Vini
TTITLE5=L'Argent du Démon
TTITLE6=Graine de Futur
TTITLE7=Pacifik
TTITLE8=Femme de Terres Déchirées
EXTD=
EXTT0=
EXTT1=
EXTT2=
EXTT3=
EXTT4=
EXTT5=
EXTT6=
EXTT7=
EXTT8=
PLAYORDER=
